<?xml version="1.0" encoding="UTF-8" standalone="no"?>
<svg
   xmlns:dc="http://purl.org/dc/elements/1.1/"
   xmlns:cc="http://creativecommons.org/ns#"
   xmlns:rdf="http://www.w3.org/1999/02/22-rdf-syntax-ns#"
   xmlns:svg="http://www.w3.org/2000/svg"
   xmlns="http://www.w3.org/2000/svg"
   xmlns:sodipodi="http://sodipodi.sourceforge.net/DTD/sodipodi-0.dtd"
   xmlns:inkscape="http://www.inkscape.org/namespaces/inkscape"
   viewBox="0 0 64 64"
   enable-background="new 0 0 64 64"
   id="svg2"
   version="1.1"
   inkscape:version="0.91 r13725"
   sodipodi:docname="1f603.svg">
  <metadata
     id="metadata20">
    <rdf:RDF>
      <cc:Work
         rdf:about="">
        <dc:format>image/svg+xml</dc:format>
        <dc:type
           rdf:resource="http://purl.org/dc/dcmitype/StillImage" />
      </cc:Work>
    </rdf:RDF>
  </metadata>
  <defs
     id="defs18" />
  <sodipodi:namedview
     pagecolor="#ffffff"
     bordercolor="#666666"
     borderopacity="1"
     objecttolerance="10"
     gridtolerance="10"
     guidetolerance="10"
     inkscape:pageopacity="0"
     inkscape:pageshadow="2"
     inkscape:window-width="2560"
     inkscape:window-height="1376"
     id="namedview16"
     showgrid="false"
     inkscape:zoom="3.6875"
     inkscape:cx="32.542373"
     inkscape:cy="32"
     inkscape:window-x="0"
     inkscape:window-y="27"
     inkscape:window-maximized="1"
     inkscape:current-layer="svg2" />
  <circle
     cx="32"
     cy="32"
     r="30"
     fill="#ffdd67"
     id="circle4"
     style="fill:#79dc52;fill-opacity:1" />
  <g
     fill="#664e27"
     id="g6"
     style="fill:#496627;fill-opacity:1">
    <circle
       cx="20.5"
       cy="24.5"
       r="5"
       id="circle8"
       style="fill:#496627;fill-opacity:1" />
    <circle
       cx="43.5"
       cy="24.5"
       r="5"
       id="circle10"
       style="fill:#496627;fill-opacity:1" />
    <path
       d="m49 38c0-.8-.5-1.8-1.8-2.1-3.5-.7-8.6-1.3-15.2-1.3-6.6 0-11.7.7-15.2 1.3-1.3.3-1.8 1.3-1.8 2.1 0 7.3 5.6 14.6 17 14.6 11.4 0 17-7.3 17-14.6"
       id="path12"
       style="fill:#496627;fill-opacity:1" />
  </g>
  <path
     d="m44.7 38.3c-2.2-.4-6.8-1-12.7-1-5.9 0-10.5.6-12.7 1-1.3.2-1.4.7-1.3 1.5.1.4.1 1 .3 1.6.1.6.3.9 1.3.8 1.9-.2 23-.2 24.9 0 1 .1 1.1-.2 1.3-.8.1-.6.2-1.1.3-1.6 0-.8-.1-1.3-1.4-1.5"
     fill="#fff"
     id="path14" />
</svg>
