<?xml version="1.0" encoding="UTF-8" standalone="no"?>
<svg
   xmlns:dc="http://purl.org/dc/elements/1.1/"
   xmlns:cc="http://creativecommons.org/ns#"
   xmlns:rdf="http://www.w3.org/1999/02/22-rdf-syntax-ns#"
   xmlns:svg="http://www.w3.org/2000/svg"
   xmlns="http://www.w3.org/2000/svg"
   xmlns:sodipodi="http://sodipodi.sourceforge.net/DTD/sodipodi-0.dtd"
   xmlns:inkscape="http://www.inkscape.org/namespaces/inkscape"
   viewBox="0 0 64 64"
   enable-background="new 0 0 64 64"
   id="svg2"
   version="1.1"
   inkscape:version="0.91 r13725"
   sodipodi:docname="1f61e.svg">
  <metadata
     id="metadata24">
    <rdf:RDF>
      <cc:Work
         rdf:about="">
        <dc:format>image/svg+xml</dc:format>
        <dc:type
           rdf:resource="http://purl.org/dc/dcmitype/StillImage" />
      </cc:Work>
    </rdf:RDF>
  </metadata>
  <defs
     id="defs22" />
  <sodipodi:namedview
     pagecolor="#ffffff"
     bordercolor="#666666"
     borderopacity="1"
     objecttolerance="10"
     gridtolerance="10"
     guidetolerance="10"
     inkscape:pageopacity="0"
     inkscape:pageshadow="2"
     inkscape:window-width="2560"
     inkscape:window-height="1376"
     id="namedview20"
     showgrid="false"
     inkscape:zoom="3.6875"
     inkscape:cx="32.542373"
     inkscape:cy="32"
     inkscape:window-x="0"
     inkscape:window-y="27"
     inkscape:window-maximized="1"
     inkscape:current-layer="svg2" />
  <circle
     cx="32"
     cy="32"
     r="30"
     fill="#ffdd67"
     id="circle4"
     style="fill:#ff7767;fill-opacity:1" />
  <g
     fill="#664e27"
     id="g6"
     style="fill:#742627;fill-opacity:1">
    <path
       d="m25.5 28.4c1.4 2.9-.4 6.6-3.9 8.3-3.5 1.6-7.5.6-8.9-2.3-.8-1.9 12-7.9 12.8-6"
       id="path8"
       style="fill:#742627;fill-opacity:1" />
    <path
       d="m38.5 28.4c-1.4 2.9.4 6.6 3.9 8.3 3.5 1.6 7.5.6 8.9-2.3.8-1.9-12-7.9-12.8-6"
       id="path10"
       style="fill:#742627;fill-opacity:1" />
  </g>
  <g
     fill="#917524"
     id="g12"
     style="fill:#742627;fill-opacity:1">
    <path
       d="m22.7 19.8c-2.7 3.3-9.2 6.3-13.5 6.3-.6 0-.7 2.2 0 2.2 4.9 0 12-3.3 15.2-7.1.5-.5-1.3-1.8-1.7-1.4"
       id="path14"
       style="fill:#742627;fill-opacity:1" />
    <path
       d="m41.3 19.8c2.7 3.3 9.2 6.3 13.5 6.3.6 0 .7 2.2 0 2.2-4.9 0-12-3.3-15.2-7.1-.5-.5 1.3-1.8 1.7-1.4"
       id="path16"
       style="fill:#742627;fill-opacity:1" />
  </g>
  <path
     d="m40.6 46.4c-5.4-2.5-11.8-2.5-17.2 0-1.3.6.3 4.2 1.7 3.5 3.6-1.7 8.9-2.3 13.9 0 1.3.6 3-2.8 1.6-3.5"
     fill="#664e27"
     id="path18"
     style="fill:#742627;fill-opacity:1" />
</svg>
